<svg id="Ebene_1" data-name="Ebene 1" xmlns="http://www.w3.org/2000/svg" viewBox="0 0 420 130"><defs><style>.cls-1{fill:#243b54;}.cls-2{fill:#00b1e2;}</style></defs><title>DataCite-Logo</title><path class="cls-1" d="M104.35,122.67a16.77,16.77,0,0,1-7-6.53,18.86,18.86,0,0,1-2.46-9.73V86.87a18.82,18.82,0,0,1,2.46-9.72,16.49,16.49,0,0,1,7-6.49,22.68,22.68,0,0,1,10.44-2.29,23.17,23.17,0,0,1,10.36,2.21,16.34,16.34,0,0,1,7,6.25,17.65,17.65,0,0,1,2.45,9.33.92.92,0,0,1-.95,1l-7.27.4c-.64,0-1-.29-1-.87a10.12,10.12,0,0,0-2.89-7.52,10.51,10.51,0,0,0-7.71-2.84A10.62,10.62,0,0,0,107,79.12a10,10,0,0,0-2.93,7.52v20.17a9.87,9.87,0,0,0,2.93,7.43,12,12,0,0,0,15.46,0,10,10,0,0,0,2.89-7.47c0-.58.31-.87,1-.87l7.27.31a1,1,0,0,1,.68.24.71.71,0,0,1,.27.55,18,18,0,0,1-2.45,9.46,16.3,16.3,0,0,1-7,6.29A23.31,23.31,0,0,1,114.79,125,22.44,22.44,0,0,1,104.35,122.67Z"/><path class="cls-1" d="M146,121.84a16.78,16.78,0,0,1-6.29-8.78,30.1,30.1,0,0,1-1.34-9,29.69,29.69,0,0,1,1.26-9A16.33,16.33,0,0,1,146,86.4a18.72,18.72,0,0,1,10.84-3.09,17.63,17.63,0,0,1,10.4,3.09,16.45,16.45,0,0,1,6.21,8.54,25.68,25.68,0,0,1,1.42,9,28.63,28.63,0,0,1-1.34,9,17.1,17.1,0,0,1-6.25,8.82,17.5,17.5,0,0,1-10.52,3.2A18.06,18.06,0,0,1,146,121.84Zm15.74-6.41a9.38,9.38,0,0,0,3.05-4.67,23.6,23.6,0,0,0,.79-6.64,22.21,22.21,0,0,0-.79-6.65,8.56,8.56,0,0,0-3-4.62,8.37,8.37,0,0,0-5.22-1.62,8.12,8.12,0,0,0-5.06,1.62,9,9,0,0,0-3.09,4.62,28.34,28.34,0,0,0,0,13.29,8.71,8.71,0,0,0,3,4.67,8.39,8.39,0,0,0,5.26,1.66A7.82,7.82,0,0,0,161.73,115.43Z"/><path class="cls-1" d="M232.37,87q3.44,3.69,3.44,10.25v26.18a1,1,0,0,1-.95,1h-7.2a1,1,0,0,1-.95-1V99.14a8.23,8.23,0,0,0-1.94-5.78,6.66,6.66,0,0,0-5.18-2.13,7,7,0,0,0-5.3,2.13,7.86,7.86,0,0,0-2,5.7v24.36a.93.93,0,0,1-.28.67.91.91,0,0,1-.67.28h-7.2a.88.88,0,0,1-.67-.28.89.89,0,0,1-.28-.67V99.14a8.16,8.16,0,0,0-2-5.78,6.79,6.79,0,0,0-5.22-2.13,6.84,6.84,0,0,0-7.2,6.48v25.71a.92.92,0,0,1-.27.67.91.91,0,0,1-.67.28h-7.28a.88.88,0,0,1-.67-.28.89.89,0,0,1-.28-.67V84.9a.94.94,0,0,1,1-1h7.28a.92.92,0,0,1,.94,1v2.61a.32.32,0,0,0,.16.31c.11.06.21,0,.32-.16a10.6,10.6,0,0,1,4.31-3.28,14.81,14.81,0,0,1,5.73-1.07,14,14,0,0,1,6.81,1.59,10.83,10.83,0,0,1,4.51,4.58c.15.22.34.22.55,0A10.89,10.89,0,0,1,216,84.82a15.55,15.55,0,0,1,6.89-1.51Q228.93,83.31,232.37,87Z"/><path class="cls-1" d="M294,87q3.43,3.69,3.44,10.25v26.18a.93.93,0,0,1-.28.67.91.91,0,0,1-.67.28h-7.2a.88.88,0,0,1-.67-.28.89.89,0,0,1-.28-.67V99.14a8.28,8.28,0,0,0-1.94-5.78,6.66,6.66,0,0,0-5.18-2.13,7,7,0,0,0-5.3,2.13,7.87,7.87,0,0,0-2.06,5.7v24.36a.92.92,0,0,1-.27.67.91.91,0,0,1-.67.28h-7.2a.88.88,0,0,1-.67-.28.89.89,0,0,1-.28-.67V99.14a8.16,8.16,0,0,0-2-5.78,6.79,6.79,0,0,0-5.22-2.13,6.84,6.84,0,0,0-7.2,6.48v25.71a.94.94,0,0,1-1,1h-7.27a.94.94,0,0,1-.95-1V84.9a.92.92,0,0,1,.95-1h7.27a.92.92,0,0,1,1,1v2.61a.31.31,0,0,0,.16.31c.11.06.21,0,.32-.16a10.54,10.54,0,0,1,4.31-3.28,14.81,14.81,0,0,1,5.73-1.07,14.07,14.07,0,0,1,6.81,1.59,10.75,10.75,0,0,1,4.5,4.58c.16.22.35.22.56,0a10.89,10.89,0,0,1,4.82-4.66,15.54,15.54,0,0,1,6.88-1.51Q290.54,83.31,294,87Z"/><path class="cls-1" d="M310.36,121.84a16.78,16.78,0,0,1-6.29-8.78,30.1,30.1,0,0,1-1.34-9A29.69,29.69,0,0,1,304,95a16.33,16.33,0,0,1,6.33-8.62,18.72,18.72,0,0,1,10.84-3.09,17.6,17.6,0,0,1,10.4,3.09,16.45,16.45,0,0,1,6.21,8.54,25.68,25.68,0,0,1,1.42,9,28.63,28.63,0,0,1-1.34,9,17,17,0,0,1-6.25,8.82,17.5,17.5,0,0,1-10.52,3.2A18.06,18.06,0,0,1,310.36,121.84Zm15.74-6.41a9.32,9.32,0,0,0,3-4.67,23.6,23.6,0,0,0,.79-6.64,22.21,22.21,0,0,0-.79-6.65,8.56,8.56,0,0,0-3-4.62,8.37,8.37,0,0,0-5.22-1.62,8.12,8.12,0,0,0-5.06,1.62,9.08,9.08,0,0,0-3.09,4.62,28.34,28.34,0,0,0,0,13.29,8.71,8.71,0,0,0,3.05,4.67,8.39,8.39,0,0,0,5.26,1.66A7.82,7.82,0,0,0,326.1,115.43Z"/><path class="cls-1" d="M373.56,87.11q3.84,3.8,3.84,10.36v26a1,1,0,0,1-.95,1h-7.28a1,1,0,0,1-.95-1v-24a8.4,8.4,0,0,0-2.05-5.89,7.05,7.05,0,0,0-5.46-2.25,7.21,7.21,0,0,0-5.5,2.21,8.16,8.16,0,0,0-2.09,5.85v24.13a.93.93,0,0,1-.28.67.91.91,0,0,1-.67.28h-7.28a.88.88,0,0,1-.67-.28.89.89,0,0,1-.28-.67V84.9a.94.94,0,0,1,.95-1h7.28a.94.94,0,0,1,.67.27,1,1,0,0,1,.28.68v2.53a.31.31,0,0,0,.15.31c.11.06.19,0,.24-.15q3.24-4.28,9.81-4.28Q369.73,83.31,373.56,87.11Z"/><path class="cls-1" d="M389.3,123.38a13.52,13.52,0,0,1-5.81-4,8.94,8.94,0,0,1-2.06-5.73v-.71a.88.88,0,0,1,.28-.67.89.89,0,0,1,.67-.28h7a1,1,0,0,1,1,1v.16a4.14,4.14,0,0,0,2.18,3.44A9.67,9.67,0,0,0,398,118a9.15,9.15,0,0,0,5.14-1.3,3.85,3.85,0,0,0,2-3.29,3,3,0,0,0-1.62-2.73,26.11,26.11,0,0,0-5.26-1.93l-3-.95a45.6,45.6,0,0,1-6.8-2.53,13.68,13.68,0,0,1-4.66-3.68,9.15,9.15,0,0,1-1.9-6,10.49,10.49,0,0,1,4.35-8.82q4.35-3.29,11.47-3.29A21.54,21.54,0,0,1,406.11,85a12.91,12.91,0,0,1,5.62,4.27,10.37,10.37,0,0,1,2,6.21.94.94,0,0,1-.27.67,1,1,0,0,1-.67.28H406a.93.93,0,0,1-.67-.28.91.91,0,0,1-.28-.67,4.07,4.07,0,0,0-2-3.44,9.55,9.55,0,0,0-5.5-1.39,9.69,9.69,0,0,0-5,1.15,3.53,3.53,0,0,0-1.94,3.2,3.12,3.12,0,0,0,1.86,2.89,32.36,32.36,0,0,0,6.21,2.17l1.74.48a55.84,55.84,0,0,1,7,2.57,13.77,13.77,0,0,1,4.82,3.64,9,9,0,0,1,2,6,10.31,10.31,0,0,1-4.43,8.82c-3,2.13-6.88,3.2-11.79,3.2A23.93,23.93,0,0,1,389.3,123.38Z"/><path class="cls-2" d="M95.18,49A.6.6,0,0,1,95,48.6V13.14a.6.6,0,0,1,.18-.44.6.6,0,0,1,.45-.19h13.11a16.22,16.22,0,0,1,6.9,1.39,10.82,10.82,0,0,1,4.59,3.91,10.53,10.53,0,0,1,1.62,5.82V38.11a10.53,10.53,0,0,1-1.62,5.82,10.82,10.82,0,0,1-4.59,3.91,16.22,16.22,0,0,1-6.9,1.39H95.63A.6.6,0,0,1,95.18,49Zm7.48-6.16H109a5.05,5.05,0,0,0,3.91-1.63,6.36,6.36,0,0,0,1.55-4.35V24.84a6.19,6.19,0,0,0-1.5-4.36,5.18,5.18,0,0,0-4-1.62h-6.29a.24.24,0,0,0-.27.26v23.5A.24.24,0,0,0,102.66,42.88Z"/><path class="cls-2" d="M143.62,23a10,10,0,0,1,4.17,3.22,7.55,7.55,0,0,1,1.49,4.57V48.6a.6.6,0,0,1-.18.44.58.58,0,0,1-.45.19h-6.13a.58.58,0,0,1-.45-.19.6.6,0,0,1-.18-.44V46.87a.21.21,0,0,0-.11-.21c-.07,0-.14,0-.21.1-1.47,1.92-3.82,2.89-7.08,2.89a10.35,10.35,0,0,1-6.61-2,7,7,0,0,1-2.51-5.87,7.53,7.53,0,0,1,2.83-6.27c1.89-1.48,4.58-2.23,8.08-2.23h5.35a.23.23,0,0,0,.26-.26V31.87a3.51,3.51,0,0,0-1-2.71,4.53,4.53,0,0,0-3.15-1,5.74,5.74,0,0,0-2.7.58,2.7,2.7,0,0,0-1.39,1.63.59.59,0,0,1-.68.52l-6.35-.84c-.42-.07-.61-.22-.57-.47a7,7,0,0,1,1.75-4,10.42,10.42,0,0,1,4.09-2.78,15.62,15.62,0,0,1,5.69-1A14.87,14.87,0,0,1,143.62,23Zm-3.3,19.9a3.74,3.74,0,0,0,1.57-3.09V38a.23.23,0,0,0-.26-.26h-3.78a6.58,6.58,0,0,0-3.7.89,2.85,2.85,0,0,0-1.34,2.52,2.75,2.75,0,0,0,1,2.23,4.12,4.12,0,0,0,2.68.81A6.09,6.09,0,0,0,140.32,42.93Z"/><path class="cls-2" d="M168.14,28a.61.61,0,0,1-.45.18h-5c-.18,0-.26.09-.26.27V39.58a3.94,3.94,0,0,0,.7,2.57,2.85,2.85,0,0,0,2.29.83h1.73a.65.65,0,0,1,.63.63v5a.65.65,0,0,1-.63.68c-1.47.07-2.52.1-3.15.1q-4.35,0-6.5-1.44c-1.44-1-2.17-2.77-2.21-5.43v-14a.24.24,0,0,0-.26-.27h-3a.6.6,0,0,1-.44-.18.58.58,0,0,1-.19-.45V22.9a.58.58,0,0,1,.19-.45.6.6,0,0,1,.44-.18h3a.23.23,0,0,0,.26-.26V15.76a.58.58,0,0,1,.19-.44.61.61,0,0,1,.44-.19h5.88a.65.65,0,0,1,.63.63V22a.23.23,0,0,0,.26.26h5a.62.62,0,0,1,.63.63v4.66A.61.61,0,0,1,168.14,28Z"/><path class="cls-2" d="M189.62,23a10,10,0,0,1,4.17,3.22,7.62,7.62,0,0,1,1.49,4.57V48.6a.6.6,0,0,1-.18.44.6.6,0,0,1-.45.19h-6.14a.58.58,0,0,1-.44-.19.6.6,0,0,1-.18-.44V46.87a.21.21,0,0,0-.11-.21c-.07,0-.14,0-.21.1-1.47,1.92-3.83,2.89-7.08,2.89a10.33,10.33,0,0,1-6.61-2,7,7,0,0,1-2.52-5.87,7.53,7.53,0,0,1,2.84-6.27c1.88-1.48,4.58-2.23,8.07-2.23h5.35a.24.24,0,0,0,.27-.26V31.87a3.51,3.51,0,0,0-1-2.71,4.53,4.53,0,0,0-3.15-1,5.71,5.71,0,0,0-2.7.58,2.7,2.7,0,0,0-1.39,1.63c-.11.38-.33.56-.68.52l-6.35-.84c-.42-.07-.61-.22-.58-.47a7,7,0,0,1,1.76-4,10.34,10.34,0,0,1,4.09-2.78,15.58,15.58,0,0,1,5.69-1A14.94,14.94,0,0,1,189.62,23Zm-3.31,19.9a3.72,3.72,0,0,0,1.58-3.09V38a.24.24,0,0,0-.27-.26h-3.77a6.55,6.55,0,0,0-3.7.89,2.85,2.85,0,0,0-1.34,2.52,2.73,2.73,0,0,0,1,2.23,4.09,4.09,0,0,0,2.67.81A6.07,6.07,0,0,0,186.31,42.93Z"/><path class="cls-1" d="M207.4,48.26a10.51,10.51,0,0,1-4.33-4.1,11.88,11.88,0,0,1-1.55-6.11V23.63a11.67,11.67,0,0,1,1.55-6,10.48,10.48,0,0,1,4.33-4.06,13.69,13.69,0,0,1,6.45-1.45,14,14,0,0,1,6.45,1.42,10.46,10.46,0,0,1,4.32,4,11.21,11.21,0,0,1,1.55,5.93.54.54,0,0,1-.16.42.46.46,0,0,1-.36.16l-2.68.16c-.35,0-.52-.16-.52-.48v-.15a7.82,7.82,0,0,0-2.36-6,8.76,8.76,0,0,0-6.24-2.23,8.66,8.66,0,0,0-6.24,2.26,7.8,7.8,0,0,0-2.37,5.93V38.21a7.8,7.8,0,0,0,2.37,5.93,9.81,9.81,0,0,0,12.48,0,7.8,7.8,0,0,0,2.36-5.95v-.1c0-.32.17-.48.52-.48l2.68.16c.35,0,.52.16.52.47a11.42,11.42,0,0,1-1.55,6,10.4,10.4,0,0,1-4.32,4,14,14,0,0,1-6.45,1.42A13.81,13.81,0,0,1,207.4,48.26Z"/><path class="cls-1" d="M231.57,17a2.85,2.85,0,0,1-.84-2.1,2.82,2.82,0,0,1,.84-2.12,3.13,3.13,0,0,1,4.2,0,2.82,2.82,0,0,1,.84,2.12,3,3,0,0,1-5,2.1Zm.11,31.63V23.16a.46.46,0,0,1,.52-.53h2.68a.46.46,0,0,1,.52.53V48.65a.46.46,0,0,1-.52.52H232.2A.46.46,0,0,1,231.68,48.65Z"/><path class="cls-1" d="M254.34,25.78h-5.93a.19.19,0,0,0-.21.21V41.46A4.62,4.62,0,0,0,249.33,45a5.11,5.11,0,0,0,3.54,1h1.31a.46.46,0,0,1,.52.52V48.7a.46.46,0,0,1-.52.53c-.42,0-1.07.05-1.94.05a9.6,9.6,0,0,1-5.72-1.42q-1.94-1.41-1.94-5.24V26a.19.19,0,0,0-.21-.21h-3.2a.46.46,0,0,1-.52-.52V23.21a.46.46,0,0,1,.52-.52h3.2a.19.19,0,0,0,.21-.21V16.39a.46.46,0,0,1,.53-.52h2.57a.46.46,0,0,1,.52.52v6.09a.19.19,0,0,0,.21.21h5.93a.46.46,0,0,1,.52.52v2.05A.46.46,0,0,1,254.34,25.78Z"/><path class="cls-1" d="M279.2,35.17v1.68a.46.46,0,0,1-.53.52H261.73a.19.19,0,0,0-.21.21,23.19,23.19,0,0,0,.32,3.73A6.24,6.24,0,0,0,264.3,45a8,8,0,0,0,4.83,1.36,7.52,7.52,0,0,0,3.88-1,6.9,6.9,0,0,0,2.62-2.83c.21-.32.45-.39.73-.21l2.05,1.2a.53.53,0,0,1,.21.74,9.61,9.61,0,0,1-3.93,4,12.35,12.35,0,0,1-6,1.44,11,11,0,0,1-6.24-1.79,9.57,9.57,0,0,1-3.62-4.82,21.55,21.55,0,0,1-.94-7.24c0-1.47,0-2.66.08-3.59a11.21,11.21,0,0,1,.39-2.49,9.79,9.79,0,0,1,3.59-5.46,10.55,10.55,0,0,1,6.53-2c3.19,0,5.63.8,7.35,2.41A11.2,11.2,0,0,1,279,31.5,26.62,26.62,0,0,1,279.2,35.17Zm-15-8.31a6.18,6.18,0,0,0-2.23,3.59,16.91,16.91,0,0,0-.42,3.57.19.19,0,0,0,.21.21h13.58a.19.19,0,0,0,.21-.21,23.63,23.63,0,0,0-.31-3.36,6.68,6.68,0,0,0-2.33-3.75,6.93,6.93,0,0,0-4.44-1.39A6.72,6.72,0,0,0,264.17,26.86Z"/><path class="cls-2" d="M5.74,46.05c.51.1,1,.19,1.57.28,25.74,5.11,64.05-1.66,69-14.14,3.87-10.08-17.73-17.22-43-16.34a8.12,8.12,0,0,0-1.47.09c13.45,1.33,25.56,6.68,20.72,15-5.29,9.12-27.72,15.2-46.83,15.1"/><path class="cls-1" d="M62.1,47.33C57.64,74.4,34.25,58.24,28.72,39.41c-8-19.57-.87-44.72,19.16-30C31.3,1.83,29.55,23.84,36.64,39.5c5.89,13.08,18.7,21.5,24.87,8,.27-.09.5-.09.59-.18"/></svg>