<?xml version="1.0" encoding="UTF-8" standalone="no"?>
<svg
   data-name="Layer 1"
   viewBox="0 0 60.35487 59.581611"
   x="0px"
   y="0px"
   version="1.1"
   id="svg79"
   sodipodi:docname="access_hero.svg"
   width="60.35487"
   height="59.581612"
   inkscape:version="1.1 (c4e8f9e, 2021-05-24)"
   xmlns:inkscape="http://www.inkscape.org/namespaces/inkscape"
   xmlns:sodipodi="http://sodipodi.sourceforge.net/DTD/sodipodi-0.dtd"
   xmlns="http://www.w3.org/2000/svg"
   xmlns:svg="http://www.w3.org/2000/svg"
   xmlns:rdf="http://www.w3.org/1999/02/22-rdf-syntax-ns#"
   xmlns:cc="http://creativecommons.org/ns#"
   xmlns:dc="http://purl.org/dc/elements/1.1/">
  <defs
     id="defs83" />
  <sodipodi:namedview
     id="namedview81"
     pagecolor="#ffffff"
     bordercolor="#666666"
     borderopacity="1.0"
     inkscape:pageshadow="2"
     inkscape:pageopacity="0.0"
     inkscape:pagecheckerboard="0"
     showgrid="false"
     inkscape:zoom="12.95"
     inkscape:cx="5.019305"
     inkscape:cy="11.853282"
     inkscape:window-width="2509"
     inkscape:window-height="1387"
     inkscape:window-x="51"
     inkscape:window-y="25"
     inkscape:window-maximized="1"
     inkscape:current-layer="svg79" />
  <title
     id="title63">superhero solid icons</title>
  <g
     id="g330"
     transform="translate(6.1405846,5.9542004)">
    <path
       d="M 23.67,9.64 A 4.82,4.82 0 1 0 18.85,4.82 4.82,4.82 0 0 0 23.67,9.64 Z"
       id="path65" />
    <path
       d="M 17.16,26.74 A 3.38,3.38 0 0 1 13.94,26.26 19.09,19.09 0 0 1 12.13,24.69 L 8,38 c 0,0 2.12,0.24 5.27,0.53 z"
       id="path67" />
    <path
       d="m 28.68,26.35 a 2.33,2.33 0 0 0 -0.11,-0.28 c 0.65,-3.6 1.37,-7.24 2.15,-10.86 1.37,0.87 2.2,1.84 2.27,2.69 0.1,1.07 -0.93,2.48 -2.9,4 a 2.14,2.14 0 0 0 1.3,3.85 2.13,2.13 0 0 0 1.3,-0.44 c 3.27,-2.5 4.81,-5.11 4.58,-7.77 A 7,7 0 0 0 34.91,13.07 14.19,14.19 0 0 0 31.66,10.83 2,2 0 0 0 31.05,10.64 1.68,1.68 0 0 0 30.4,10.54 H 16.94 a 1.73,1.73 0 0 0 -0.66,0.11 1.82,1.82 0 0 0 -0.57,0.19 13.86,13.86 0 0 0 -3.25,2.23 7,7 0 0 0 -2.35,4.47 c -0.24,2.66 1.3,5.27 4.57,7.77 a 2.15,2.15 0 0 0 3,-0.4 2.15,2.15 0 0 0 -0.41,-3 c -2,-1.5 -3,-2.91 -2.9,-4 0.07,-0.84 0.89,-1.81 2.25,-2.68 0.76,3.56 1.47,7.14 2.12,10.68 a 2.88,2.88 0 0 0 -0.13,0.31 l -5.94,18 a 2.76,2.76 0 0 0 1.76,3.49 2.64,2.64 0 0 0 0.87,0.14 2.78,2.78 0 0 0 2.64,-1.85 l 5.69,-17.3 5.74,17.4 A 2.76,2.76 0 0 0 32,48 2.93,2.93 0 0 0 32.87,47.86 2.76,2.76 0 0 0 34.63,44.37 Z M 26,20.49 23.69,19.3 21.42,20.49 21.85,18 20,16.18 l 2.53,-0.37 1.14,-2.3 1.13,2.3 2.53,0.37 -1.81,1.82 z"
       id="path69" />
    <path
       d="m 21.47,39.14 q 2.18,0.12 4.38,0.18 l -2.22,-6.73 z"
       id="path71" />
    <path
       d="m 33.43,26.26 a 3.35,3.35 0 0 1 -2,0.69 3.4,3.4 0 0 1 -1.31,-0.26 L 34.2,39.2 A 17,17 0 0 0 40,38 L 35.5,24.43 a 20,20 0 0 1 -2.07,1.83 z"
       id="path73" />
  </g>
  <ellipse
     style="fill:none;fill-rule:evenodd;stroke:#000000;stroke-width:1.17316;stroke-opacity:1"
     id="path480"
     cx="30.177435"
     cy="29.790806"
     rx="29.590855"
     ry="29.204226"
     inkscape:transform-center-x="-0.090908627"
     inkscape:transform-center-y="0.63192971" />
  <metadata
     id="metadata1530">
    <rdf:RDF>
      <cc:Work
         rdf:about="">
        <dc:title>superhero solid icons</dc:title>
      </cc:Work>
    </rdf:RDF>
  </metadata>
</svg>
