<svg width="48" height="48" xmlns="http://www.w3.org/2000/svg" data-name="Layer 1">
 <title>superhero solid icons</title>

 <g>
  <title>Layer 1</title>
  <path d="m23.67,9.64a4.82,4.82 0 1 0 -4.82,-4.82a4.82,4.82 0 0 0 4.82,4.82z" id="svg_1"/>
  <path d="m17.16,26.74a3.38,3.38 0 0 1 -3.22,-0.48a19.09,19.09 0 0 1 -1.81,-1.57l-4.13,13.31s2.12,0.24 5.27,0.53l3.89,-11.79z" id="svg_2"/>
  <path d="m28.68,26.35a2.33,2.33 0 0 0 -0.11,-0.28c0.65,-3.6 1.37,-7.24 2.15,-10.86c1.37,0.87 2.2,1.84 2.27,2.69c0.1,1.07 -0.93,2.48 -2.9,4a2.14,2.14 0 0 0 1.3,3.85a2.13,2.13 0 0 0 1.3,-0.44c3.27,-2.5 4.81,-5.11 4.58,-7.77a7,7 0 0 0 -2.36,-4.47a14.19,14.19 0 0 0 -3.25,-2.24a2,2 0 0 0 -0.61,-0.19a1.68,1.68 0 0 0 -0.65,-0.1l-13.46,0a1.73,1.73 0 0 0 -0.66,0.11a1.82,1.82 0 0 0 -0.57,0.19a13.86,13.86 0 0 0 -3.25,2.23a7,7 0 0 0 -2.35,4.47c-0.24,2.66 1.3,5.27 4.57,7.77a2.15,2.15 0 0 0 3,-0.4a2.15,2.15 0 0 0 -0.41,-3c-2,-1.5 -3,-2.91 -2.9,-4c0.07,-0.84 0.89,-1.81 2.25,-2.68c0.76,3.56 1.47,7.14 2.12,10.68a2.88,2.88 0 0 0 -0.13,0.31l-5.94,18a2.76,2.76 0 0 0 1.76,3.49a2.64,2.64 0 0 0 0.87,0.14a2.78,2.78 0 0 0 2.64,-1.85l5.69,-17.3l5.74,17.4a2.76,2.76 0 0 0 2.63,1.9a2.93,2.93 0 0 0 0.87,-0.14a2.76,2.76 0 0 0 1.76,-3.49l-5.95,-18.02zm-2.68,-5.86l-2.31,-1.19l-2.27,1.19l0.43,-2.49l-1.85,-1.82l2.53,-0.37l1.14,-2.3l1.13,2.3l2.53,0.37l-1.81,1.82l0.48,2.49z" id="svg_3"/>
  <path d="m21.47,39.14q2.18,0.12 4.38,0.18l-2.22,-6.73l-2.16,6.55z" id="svg_4"/>
  <path d="m33.43,26.26a3.35,3.35 0 0 1 -2,0.69a3.4,3.4 0 0 1 -1.31,-0.26l4.08,12.51a17,17 0 0 0 5.8,-1.2l-4.5,-13.57a20,20 0 0 1 -2.07,1.83z" id="svg_5"/>
 </g>
</svg>