<svg width="164" height="164" xmlns="http://www.w3.org/2000/svg" xml:space="preserve" enable-background="new 0 0 164 164" version="1.1">

 <g>
  <title>Layer 1</title>
  <g id="svg_1">
   <g id="svg_2">
    <path id="svg_3" d="m163,82c0,-15.4 -4.4,-30.4 -12.6,-43.4l0,-12.1c0,-0.2 -0.1,-0.5 -0.3,-0.7l0,0c0,0 0,0 0,0l-18,-18l0,0l0,0c-0.2,-0.2 -0.5,-0.3 -0.7,-0.3l-17.7,0c-10,-4.3 -20.7,-6.5 -31.7,-6.5c-16.5,0 -32.4,4.9 -45.9,14.3l-1.8,-4.1l0,0l-3.5,-7.8c-0.2,-0.4 -0.5,-0.6 -0.9,-0.6c-0.4,0 -0.7,0.2 -0.9,0.6l-7.8,17.2c0,0 0,0 0,0c-0.1,0.2 -0.2,0.3 -0.2,0.4l0,0l0,7.6c-12.9,14.8 -20,33.8 -20,53.4c0,15.8 4.5,31 13.1,44.1l-0.3,0.3c-1.2,1.5 -1.8,3.4 -1.8,5.3c0,4.7 3.8,8.5 8.5,8.5l5.3,0c15.1,14.7 35.1,22.8 56.2,22.8c44.6,0 81,-36.4 81,-81zm-2,0c0,22 -9,41.9 -23.6,56.2l-32.9,0c1.8,-1.6 3,-3.9 3,-6.5c0,-1.9 -0.7,-3.8 -1.8,-5.3l-19.3,-24.2l63,0c0.6,0 1,-0.4 1,-1l0,-58.7c6.9,12 10.6,25.5 10.6,39.5zm-47.5,-72.6c0,0 0,0 0,0l16.9,0l0,17c0,0.6 0.4,1 1,1l17,0l0,72.8l-63.6,0l-3.5,-4.4l0,-86.4l32.2,0zm33.5,16.1l-14.6,0l0,-14.6l14.6,14.6zm-124,58.3l13.6,0l0,2.9l-13.6,0l0,-2.9zm13.6,-2l-13.6,0l0,-44.2l13.6,0l0,44.2zm0,-46.2l-13.6,0l0,-6.6c0,0 0,0 0,0l0,-7l13.6,0l0,13.6zm0,53.1c-0.2,3.6 -3.1,6.4 -6.8,6.4c-3.6,0 -6.6,-2.9 -6.8,-6.4l13.6,0zm-13,-68.7l3.4,-7.4l5.8,0l3.4,7.4l-12.6,0zm6.2,-13.7l1.6,3.6l0.4,0.8l-4,0l0.6,-1.3l1.4,-3.1zm-26.8,75.7c0,-18.4 6.4,-36.1 18,-50.2l0,4.8l0,46.2c0,0 0,0 0,0l0,4.9l0,0.7c0,4.8 3.9,8.8 8.8,8.8s8.8,-3.9 8.8,-8.8l0,-0.7l0,-4.9c0,0 0,0 0,0l0,-46.2c0,0 0,0 0,0l0,-15.6c0,-0.1 0,-0.2 -0.1,-0.3c0,0 0,-0.1 0,-0.1c0,0 0,0 0,0l-1.6,-3.5c13.3,-9.2 28.9,-14.1 45.1,-14.1c9,0 17.8,1.5 26.1,4.4l-27.7,0c-0.6,0 -1,0.4 -1,1l0,84.9l-7.3,-9.1l0,-44.1l0.3,0c1.9,0 3.4,-1.5 3.4,-3.4l0,-4.7c0,-1.9 -1.5,-3.4 -3.4,-3.4l-25.3,0c-1.9,0 -3.4,1.5 -3.4,3.4l0,4.8c0,1.9 1.5,3.4 3.4,3.4l0.3,0l0,44.1l-32,40.2c-8.1,-12.7 -12.4,-27.4 -12.4,-42.5zm44.1,-43.9c-0.8,0 -1.4,-0.6 -1.4,-1.4l0,-4.7c0,-0.8 0.6,-1.4 1.4,-1.4l25.4,0c0.8,0 1.4,0.6 1.4,1.4l0,4.8c0,0.8 -0.6,1.4 -1.4,1.4l-1.3,0l-22.8,0l-1.3,0l0,-0.1zm-33.1,93.6c0,-1.5 0.5,-2.9 1.4,-4l33.8,-42.5c0.1,-0.2 0.2,-0.4 0.2,-0.6l0,-44.5l20.7,0l0,44.4c0,0.2 0.1,0.4 0.2,0.6l33.8,42.5c0.9,1.1 1.4,2.6 1.4,4c0,3.6 -2.9,6.5 -6.5,6.5l-73,0l0,0c0,0 0,0 0,0l-5.6,0c-3.5,0.1 -6.4,-2.8 -6.4,-6.4zm14.6,8.5l70.4,0l36.3,0c-14,12.9 -32.8,20.8 -53.3,20.8c-19.9,0 -38.8,-7.4 -53.4,-20.8z"/>
   </g>
   <g id="svg_4">
    <path id="svg_5" d="m79.7,146.3c0,-0.6 -0.4,-1 -1,-1l-24.2,0c-0.6,0 -1,0.4 -1,1c0,0.6 0.4,1 1,1l24.2,0c0.5,0 1,-0.5 1,-1z"/>
   </g>
   <g id="svg_6">
    <path id="svg_7" d="m87.6,146.3c0,-0.6 -0.4,-1 -1,-1l-4,0c-0.6,0 -1,0.4 -1,1c0,0.6 0.4,1 1,1l4,0c0.5,0 1,-0.5 1,-1z"/>
   </g>
   <g id="svg_8">
    <path id="svg_9" d="m90,147.3l2.6,0c0.6,0 1,-0.4 1,-1c0,-0.6 -0.4,-1 -1,-1l-2.6,0c-0.6,0 -1,0.4 -1,1c0,0.5 0.4,1 1,1z"/>
   </g>
   <g id="svg_10">
    <path id="svg_11" d="m109.5,150.2l-24.2,0c-0.6,0 -1,0.4 -1,1c0,0.6 0.4,1 1,1l24.2,0c0.6,0 1,-0.4 1,-1c0,-0.6 -0.4,-1 -1,-1z"/>
   </g>
   <g id="svg_12">
    <path id="svg_13" d="m81.4,150.2l-4,0c-0.6,0 -1,0.4 -1,1c0,0.6 0.4,1 1,1l4,0c0.6,0 1,-0.4 1,-1c0,-0.6 -0.4,-1 -1,-1z"/>
   </g>
   <g id="svg_14">
    <path id="svg_15" d="m74,150.2l-2.6,0c-0.6,0 -1,0.4 -1,1c0,0.6 0.4,1 1,1l2.6,0c0.6,0 1,-0.4 1,-1c0,-0.6 -0.4,-1 -1,-1z"/>
   </g>
   <g id="svg_16">
    <path id="svg_17" d="m99.1,133.6c1,0 1.9,-0.8 1.9,-1.9c0,-0.4 -0.1,-0.8 -0.4,-1.2l-20.2,-25.4c-0.2,-0.2 -0.5,-0.4 -0.8,-0.4l-39.7,0c-0.3,0 -0.6,0.1 -0.8,0.4l-20.1,25.5c-0.3,0.3 -0.4,0.7 -0.4,1.2c0,1 0.8,1.9 1.9,1.9l78.6,0l0,-0.1zm-58.7,-26.8l38.7,0l19.7,24.8l-78.1,0l19.7,-24.8z"/>
   </g>
   <g id="svg_18">
    <path id="svg_19" d="m96.9,39.1c0.2,0 0.4,0 0.6,0l4,16.4c-0.8,0.3 -1.5,0.8 -2.1,1.4c-2.6,2.6 -2.6,6.8 0,9.3c1.3,1.3 3,1.9 4.7,1.9c1.7,0 3.4,-0.6 4.7,-1.9c1.2,-1.2 1.9,-2.9 1.9,-4.7c0,-1.4 -0.5,-2.8 -1.3,-3.9l12.6,-12.6c1.2,0.8 2.5,1.3 3.9,1.3c1.7,0 3.4,-0.6 4.7,-1.9c2.6,-2.6 2.6,-6.8 0,-9.3c-2.6,-2.6 -6.8,-2.6 -9.3,0c-0.6,0.6 -1.1,1.4 -1.4,2.1l-16.4,-4c0,-0.2 0,-0.4 0,-0.6c0,-1.8 -0.7,-3.4 -1.9,-4.7c-1.2,-1.2 -2.9,-1.9 -4.7,-1.9c-1.8,0 -3.4,0.7 -4.7,1.9c-2.6,2.6 -2.6,6.8 0,9.3c1.3,1.3 2.9,1.9 4.7,1.9zm10.4,25.7c-1.8,1.8 -4.7,1.8 -6.5,0c-1.8,-1.8 -1.8,-4.7 0,-6.5c0.9,-0.9 2,-1.3 3.2,-1.3c1.2,0 2.4,0.5 3.2,1.3c0,0 0,0 0,0c0,0 0,0 0,0c0.9,0.9 1.3,2 1.3,3.2c0.2,1.3 -0.3,2.5 -1.2,3.3zm18.6,-29.7c1.2,0 2.4,0.4 3.2,1.3c1.8,1.8 1.8,4.7 0,6.5c-1.8,1.8 -4.7,1.8 -6.5,0c0,0 0,0 0,0c0,0 0,0 0,0c-1.8,-1.8 -1.8,-4.7 0,-6.5c1,-0.8 2.2,-1.3 3.3,-1.3zm-6.5,4c-0.1,1.6 0.3,3.2 1.3,4.5l-12.7,12.7c-1.1,-0.8 -2.5,-1.3 -3.9,-1.3c-0.2,0 -0.4,0 -0.6,0l-4,-16.4c0.8,-0.3 1.5,-0.8 2.1,-1.4c0.6,-0.6 1.1,-1.3 1.4,-2.1l16.4,4zm-25.7,-9.8c0.9,-0.9 2,-1.3 3.2,-1.3c1.2,0 2.4,0.5 3.2,1.3c0.9,0.9 1.3,2 1.3,3.2c0,1.2 -0.5,2.4 -1.3,3.2c-0.9,0.9 -2,1.3 -3.2,1.3c-1.2,0 -2.4,-0.5 -3.2,-1.3c-1.8,-1.7 -1.8,-4.6 0,-6.4z"/>
   </g>
   <g id="svg_20">
    <path id="svg_21" d="m78.7,119.1c-2.7,0 -4.9,2.2 -4.9,4.9c0,2.7 2.2,4.9 4.9,4.9c2.7,0 4.9,-2.2 4.9,-4.9c0,-2.7 -2.2,-4.9 -4.9,-4.9zm0,7.7c-1.6,0 -2.9,-1.3 -2.9,-2.9c0,-1.6 1.3,-2.9 2.9,-2.9c1.6,0 2.9,1.3 2.9,2.9c0,1.6 -1.3,2.9 -2.9,2.9z"/>
   </g>
   <g id="svg_22">
    <path id="svg_23" d="m76.8,115.3c0,-1.8 -1.5,-3.2 -3.2,-3.2c-1.8,0 -3.2,1.5 -3.2,3.2c0,1.8 1.5,3.2 3.2,3.2c1.7,0.1 3.2,-1.4 3.2,-3.2zm-3.2,1.3c-0.7,0 -1.2,-0.6 -1.2,-1.2s0.6,-1.2 1.2,-1.2c0.7,0 1.2,0.6 1.2,1.2s-0.6,1.2 -1.2,1.2z"/>
   </g>
   <g id="svg_24">
    <path id="svg_25" d="m69.1,119.5c-2,0 -3.6,1.6 -3.6,3.6s1.6,3.6 3.6,3.6c2,0 3.6,-1.6 3.6,-3.6s-1.6,-3.6 -3.6,-3.6zm0,5.2c-0.9,0 -1.6,-0.7 -1.6,-1.6c0,-0.9 0.7,-1.6 1.6,-1.6c0.9,0 1.6,0.7 1.6,1.6c0,0.9 -0.7,1.6 -1.6,1.6z"/>
   </g>
   <g id="svg_26">
    <path id="svg_27" d="m89,78.2l51.8,0c0.6,0 1,-0.4 1,-1c0,-0.6 -0.4,-1 -1,-1l-51.8,0c-0.6,0 -1,0.4 -1,1c0,0.5 0.4,1 1,1z"/>
   </g>
   <g id="svg_28">
    <path id="svg_29" d="m140.8,87.1l-28.9,0c-0.6,0 -1,0.4 -1,1c0,0.6 0.4,1 1,1l28.9,0c0.6,0 1,-0.4 1,-1c0,-0.6 -0.5,-1 -1,-1z"/>
   </g>
  </g>
 </g>
</svg>