<svg width="60" height="60" xmlns="http://www.w3.org/2000/svg" xml:space="preserve" version="1.1">

 <g>
  <title>Layer 1</title>
  <path id="svg_1" d="m30,23c-3.33545,0 -6.43372,1.02869 -9,2.78162l0,-9.88123c0,-4.90723 3.99316,-8.90039 8.90039,-8.90039l0.19922,0c4.90723,0 8.90039,3.99316 8.90039,8.90039c0,0.55274 0.44727,1 1,1s1,-0.44726 1,-1c0,-6.01074 -4.88965,-10.90039 -10.90039,-10.90039l-0.19922,0c-6.01074,0 -10.90039,4.88965 -10.90039,10.90039l0,11.09961c0,0.12335 0.02942,0.23859 0.07013,0.3476c-3.11218,2.92095 -5.07013,7.05767 -5.07013,11.6524c0,8.82227 7.17773,16 16,16s16,-7.17773 16,-16s-7.17773,-16 -16,-16zm0,30c-7.71973,0 -14,-6.28027 -14,-14s6.28027,-14 14,-14s14,6.28027 14,14s-6.28027,14 -14,14z"/>
  <path id="svg_2" d="m30,35c-2.20605,0 -4,1.79395 -4,4c0,1.8587 1.27948,3.41095 3,3.85803l0,3.14197c0,0.55273 0.44727,1 1,1s1,-0.44727 1,-1l0,-3.14197c1.72052,-0.44708 3,-1.99933 3,-3.85803c0,-2.20605 -1.79395,-4 -4,-4zm0,6c-1.10254,0 -2,-0.89746 -2,-2s0.89746,-2 2,-2s2,0.89746 2,2s-0.89746,2 -2,2z"/>
 </g>
</svg>