<?xml version="1.0" encoding="UTF-8" standalone="no"?>
<svg
   version="1.1"
   x="0px"
   y="0px"
   viewBox="0 0 90.600006 89.80001"
   enable-background="new 0 0 100 100"
   xml:space="preserve"
   id="svg1586"
   sodipodi:docname="free_access.svg"
   width="90.600006"
   height="89.800011"
   inkscape:version="1.1 (c4e8f9e, 2021-05-24)"
   xmlns:inkscape="http://www.inkscape.org/namespaces/inkscape"
   xmlns:sodipodi="http://sodipodi.sourceforge.net/DTD/sodipodi-0.dtd"
   xmlns="http://www.w3.org/2000/svg"
   xmlns:svg="http://www.w3.org/2000/svg"><defs
     id="defs1590" /><sodipodi:namedview
     id="namedview1588"
     pagecolor="#ffffff"
     bordercolor="#666666"
     borderopacity="1.0"
     inkscape:pageshadow="2"
     inkscape:pageopacity="0.0"
     inkscape:pagecheckerboard="0"
     showgrid="false"
     inkscape:zoom="5"
     inkscape:cx="2.4"
     inkscape:cy="58.1"
     inkscape:window-width="2509"
     inkscape:window-height="1387"
     inkscape:window-x="51"
     inkscape:window-y="25"
     inkscape:window-maximized="1"
     inkscape:current-layer="svg1586" /><g
     id="g1580"
     transform="translate(-5.1686954,-3.6782454)"><path
       fill-rule="evenodd"
       clip-rule="evenodd"
       d="M 73.623,59.295 C 70.995,42.426 51.968,33.928 37.561,43.085 c -0.4,0.254 -0.733,0.686 -1.271,0.628 -0.232,-0.26 -0.175,-0.545 -0.175,-0.81 -0.002,-4.434 -0.054,-8.87 0.016,-13.304 0.118,-7.505 6.209,-13.669 13.626,-13.879 7.637,-0.216 13.98,5.409 14.656,12.985 0.031,0.369 -0.081,0.789 0.365,1.144 1.343,0.094 2.763,0.146 4.209,-0.052 0.28,-0.932 0.129,-1.815 0.006,-2.674 C 67.429,16.189 56.547,8.872 45.822,11.523 37.4,13.606 31.513,20.972 31.426,29.645 c -0.059,5.821 -0.035,11.642 0.002,17.461 0.008,1.099 -0.244,2.002 -0.854,2.934 -9.014,13.761 -1.673,32.12 14.321,35.936 0.735,0.175 1.558,0.074 2.207,0.589 2.106,0 4.214,0 6.319,0 0.288,-0.339 0.705,-0.273 1.077,-0.342 C 66.744,83.98 75.68,72.49 73.623,59.295 Z M 50.3,81.878 C 39.917,81.885 31.46,73.477 31.418,63.105 31.376,52.614 39.757,44.107 50.195,44.047 60.619,43.987 69.136,52.459 69.163,62.916 69.19,73.384 60.748,81.87 50.3,81.878 Z"
       id="path1576" /><path
       fill-rule="evenodd"
       clip-rule="evenodd"
       d="m 52.683,65.326 c 10e-4,-1.325 10e-4,-2.649 10e-4,-3.974 0,-0.497 -0.003,-0.991 -0.177,-1.47 -0.391,-1.082 -1.309,-1.695 -2.423,-1.604 -1.037,0.086 -1.844,0.777 -2.058,1.844 -0.098,0.48 -0.095,0.986 -0.095,1.48 -0.01,2.484 -0.013,4.967 0,7.451 0.004,0.549 0.011,1.112 0.137,1.641 0.228,0.973 1.03,1.593 2.02,1.672 0.992,0.08 1.872,-0.408 2.303,-1.291 0.246,-0.507 0.298,-1.053 0.294,-1.611 -0.01,-1.379 -0.002,-2.759 -0.002,-4.138 z"
       id="path1578" /></g><ellipse
     style="fill:none;stroke:#000000;stroke-width:1.00781"
     id="path1773"
     cx="45.300003"
     cy="44.900005"
     rx="44.796097"
     ry="44.396099" /></svg>
